<svg width="75" height="90" viewBox="0 0 75 90" fill="none" xmlns="http://www.w3.org/2000/svg">
<path d="M10.7143 39.375H12.9743C17.1094 49.3066 26.5179 56.25 37.5 56.25C48.4821 56.25 57.8906 49.3066 62.0257 39.375H64.2857C65.7589 39.375 66.9643 38.1094 66.9643 36.5625V19.6875C66.9643 18.1406 65.7589 16.875 64.2857 16.875H62.0257C57.8906 6.94336 48.4821 0 37.5 0C26.5179 0 17.1094 6.94336 12.9743 16.875H10.7143C9.24107 16.875 8.03571 18.1406 8.03571 19.6875V36.5625C8.03571 38.1094 9.24107 39.375 10.7143 39.375ZM17.4107 23.9062C17.4107 20.0215 21.01 16.875 25.4464 16.875H49.5536C53.99 16.875 57.5893 20.0215 57.5893 23.9062V28.125C57.5893 37.4414 50.3906 45 41.5179 45H33.4821C24.6094 45 17.4107 37.4414 17.4107 28.125V23.9062ZM29.4643 36.5625L31.4732 30.2344L37.5 28.125L31.4732 26.0156L29.4643 19.6875L27.4554 26.0156L21.4286 28.125L27.4554 30.2344L29.4643 36.5625ZM54.8438 56.4961C49.8382 59.8887 43.8951 61.875 37.5 61.875C31.1049 61.875 25.1618 59.8887 20.1562 56.4961C8.85603 57.7441 0 67.6758 0 79.875V81.5625C0 86.2207 3.59933 90 8.03571 90H21.4286V78.75C21.4286 75.6387 23.8225 73.125 26.7857 73.125H48.2143C51.1775 73.125 53.5714 75.6387 53.5714 78.75V90H66.9643C71.4007 90 75 86.2207 75 81.5625V79.875C75 67.6758 66.144 57.7441 54.8438 56.4961ZM45.5357 78.75C44.0625 78.75 42.8571 80.0156 42.8571 81.5625C42.8571 83.1094 44.0625 84.375 45.5357 84.375C47.0089 84.375 48.2143 83.1094 48.2143 81.5625C48.2143 80.0156 47.0089 78.75 45.5357 78.75ZM29.4643 78.75C27.9911 78.75 26.7857 80.0156 26.7857 81.5625V90H32.1429V81.5625C32.1429 80.0156 30.9375 78.75 29.4643 78.75Z" fill="white"/>
</svg>
